#!OML:ASF H:\Terrain\Patient Classification 1\PLAYGROUND\JustinFriday\JustinFriday.ASF
:FULLY-SPECIFIED
:DEGREES
1634
root -10.0147 26.658 -8.72561 314.545 87.0023 44.2176
lowerback 28.0484 0.0612415 1.59965
upperback 13.7687 1.80881 -0.986617
thorax 0.0180497 1.73598 -2.47487
lowerneck 13.0536 -8.12161 -5.37582
upperneck 11.3937 -11.1664 0.146497
head 1.80375 -5.64206 1.15618
rclavicle 4.65156e-014 -2.46493e-014
rhumerus 34.4456 13.4583 -64.8504
rradius 69.2308
rwrist 8.54875
rhand 18.6691 -57.3187
rfingers 7.12502
rthumb 43.2933 -81.4602
lclavicle 4.65156e-014 -2.46493e-014
lhumerus 51.1309 -13.6166 67.5889
lradius 18.5856
lwrist -21.8462
lhand 10.9195 -6.78186
lfingers 7.12502
lthumb 35.9979 19.5352
rfemur -9.44968 2.27855 18.49
rtibia 27.4999
rfoot 10.0045 -6.83587
rtoes 7.52033
lfemur -21.2014 2.37325 -8.94853
ltibia 27.3713
lfoot -1.91165 -0.934486
ltoes -1.07406
1635
root -10.0083 26.6454 -8.68 306.627 87.3028 36.1827
lowerback 28.2802 0.419673 0.808143
upperback 13.8879 2.11729 -0.953466
thorax 0.0380826 1.86603 -2.07347
lowerneck 8.29974 -8.32314 -4.59629
upperneck 18.6832 -11.1825 1.18617
head 4.6511 -5.50973 0.935428
rclavicle -2.10712e-014 9.06458e-014
rhumerus 34.5038 12.4473 -65.367
rradius 69.2495
rwrist 8.72813
rhand 17.3012 -57.4024
rfingers 7.12502
rthumb 42.0131 -81.9881
lclavicle -2.10712e-014 9.06458e-014
lhumerus 51.9805 -13.6966 68.0331
lradius 18.1273
lwrist -22.6478
lhand 10.7571 -6.54412
lfingers 7.12502
lthumb 35.8441 19.8106
rfemur -9.73245 2.78693 18.7354
rtibia 26.9464
rfoot 8.88771 -8.08014
rtoes 8.86
lfemur -22.2448 2.56562 -8.95636
ltibia 27.0508
lfoot -2.22215 -0.496821
ltoes -1.63142
1636
root -10.0179 26.6741 -8.72072 314.12 87.0327 43.6675
lowerback 28.1101 0.463658 1.38883
upperback 13.8335 2.3075 -1.45952
thorax 0.109521 2.01802 -3.0038
lowerneck 5.42237 -9.06616 -5.47216
upperneck 24.0153 -12.4917 3.11747
head 7.05073 -5.93413 1.3737
rclavicle -2.34566e-014 6.0033e-014
rhumerus 34.0382 11.9248 -66.0926
rradius 69.2696
rwrist 8.90538
rhand 17.2973 -57.2427
rfingers 7.12502
rthumb 42.0095 -81.8295
lclavicle -2.34566e-014 6.0033e-014
lhumerus 52.036 -14.2842 67.5319
lradius 18.1685
lwrist -22.6783
lhand 11.0592 -7.56169
lfingers 7.12502
lthumb 36.1303 18.7227
rfemur -9.88098 2.53134 18.5101
rtibia 26.455
rfoot 8.29935 -7.25741
rtoes 8.81403
lfemur -22.6657 2.28214 -9.12377
ltibia 26.7721
lfoot -3.18058 0.601458
ltoes -4.51915
1637
root -10.0134 26.6713 -8.71243 310.751 87.1767 40.2223
lowerback 28.2066 0.415752 1.2866
upperback 13.6533 2.1987 -1.26544
thorax -0.160305 1.92868 -2.71501
lowerneck 5.694 -9.20184 -7.41241
upperneck 23.8279 -12.9836 4.56088
head 7.20215 -6.24307 2.11613
rclavicle 2.0276e-014 -5.60573e-014
rhumerus 33.8187 12.2514 -65.8742
rradius 69.3482
rwrist 8.98913
rhand 18.1574 -55.8253
rfingers 7.12502
rthumb 42.8149 -80.1363
lclavicle 2.0276e-014 -5.60573e-014
lhumerus 51.6506 -14.5534 67.4042
lradius 18.3133
lwrist -22.3471
lhand 10.3628 -6.42176
lfingers 7.12502
lthumb 35.4703 20.0231
rfemur -10.1529 2.30906 18.5724
rtibia 26.0791
rfoot 7.664 -7.10772
rtoes 7.90217
lfemur -23.6462 3.10593 -9.30903
ltibia 26.5501
lfoot -3.25272 0.0955132
ltoes -7.07114
1638
root -10.0152 26.6762 -8.70823 309.319 87.2273 38.6513
lowerback 28.0942 0.332821 0.70966
upperback 13.512 1.92429 -0.366557
thorax -0.341797 1.6955 -1.33165
lowerneck 5.94276 -8.68191 -7.43179
upperneck 23.8074 -11.7097 1.77351
head 6.91304 -5.84375 1.3183
rclavicle -3.97569e-016 -5.56597e-015
rhumerus 34.1521 13.7775 -64.2856
rradius 69.4695
rwrist 8.98961
rhand 22.323 -50.6563
rfingers 7.12502
rthumb 46.6927 -73.4567
lclavicle -3.97569e-016 -5.56597e-015
lhumerus 50.5511 -13.4066 68.9498
lradius 18.4865
lwrist -22.9403
lhand 9.80577 -5.18731
lfingers 7.12502
lthumb 34.9421 21.3823
rfemur -10.4846 1.9325 18.6055
rtibia 25.6646
rfoot 7.04868 -6.80275
rtoes 6.55911
lfemur -24.6364 3.6286 -9.5122
ltibia 26.3962
lfoot -3.43023 0.210535
ltoes -7.87586
